<?xml version="1.0" encoding="utf-8"?>
<!-- Generator: Adobe Illustrator 19.2.1, SVG Export Plug-In . SVG Version: 6.00 Build 0)  -->
<svg version="1.1" id="layer" xmlns="http://www.w3.org/2000/svg" xmlns:xlink="http://www.w3.org/1999/xlink" x="0px" y="0px"
	 viewBox="0 0 652 652" style="enable-background:new 0 0 652 652;" xml:space="preserve">
<style type="text/css">
	.st0{fill:#DF3232;}
	.st1{fill:#004889;}
	.st2{fill:#008089;}
	.st3{fill-rule:evenodd;clip-rule:evenodd;fill:#FFFFFF;}
	.st4{fill:#FFFFFF;}
	.st5{fill:#4C4948;}
</style>
<g>
	<path class="st0" d="M62.9,255.1h52.4c7.3,0,11.9,6,10.1,13.3l-24.4,104.8c-1.7,7.3-9,13.3-16.4,13.3H32.3c-7.3,0-11.8-6-10.1-13.3
		l24.4-104.8C48.3,261.1,55.6,255.1,62.9,255.1"/>
	<path class="st1" d="M111,255.1h60.3c7.3,0,4,6,2.3,13.3l-24.4,104.8c-1.7,7.3-1.2,13.3-8.5,13.3H80.4c-7.3,0-11.9-6-10.2-13.3
		l24.4-104.8C96.3,261.1,103.6,255.1,111,255.1"/>
	<path class="st2" d="M168.9,255.1h52.4c7.3,0,11.9,6,10.2,13.3L207,373.2c-1.7,7.3-9,13.3-16.4,13.3h-52.4c-7.3,0-11.9-6-10.2-13.3
		l24.4-104.8C154.2,261.1,161.5,255.1,168.9,255.1"/>
	<path class="st3" d="M160.1,353.7h4.9l1.5-4.7h-5L160.1,353.7z M164.1,340.5l-1.7,5.6c0,0,1.9-1,2.9-1.3c1-0.2,2.6-0.4,2.6-0.4
		l1.2-3.9H164.1z M166.5,332.5l-1.6,5.4c0,0,1.8-0.8,2.8-1.1c1-0.3,2.5-0.4,2.5-0.4l1.2-3.9H166.5z M177.5,332.5l-6.4,21.1h1.7
		l-1.3,4.4h-1.7l-0.4,1.4h-6.1l0.4-1.4h-12.4l1.3-4h1.2l6.5-21.5l1.3-4.3h6.2l-0.7,2.2c0,0,1.7-1.2,3.2-1.6
		c1.6-0.4,10.6-0.6,10.6-0.6l-1.3,4.3H177.5z"/>
	<path class="st4" d="M180.2,328.2h6.6l0.1,2.5c0,0.4,0.3,0.6,1.1,0.6h1.4l-1.2,4.1h-3.6c-3.1,0.2-4.3-1.1-4.2-2.6L180.2,328.2z"/>
	<path class="st4" d="M181.1,347.5h-6.3l1.1-3.6h7.2l1-3.3H177l1.2-4.1H198l-1.2,4.1h-6.6l-1.1,3.3h6.7l-1.1,3.6h-7.2l-1.3,1.5h2.9
		l0.7,4.6c0.1,0.5,0.1,0.7,0.2,0.9c0.1,0.2,1,0.3,1.5,0.3h0.9l-1.3,4.4h-2.2c-0.4,0-0.9,0-1.6,0c-0.7-0.1-1.1-0.5-1.6-0.7
		c-0.4-0.2-1-0.7-1.2-1.6l-0.7-4.6l-3.3,4.5c-1,1.4-2.4,2.5-4.8,2.5h-4.6l1.2-4h1.8c0.5,0,0.9-0.2,1.3-0.4c0.3-0.1,0.6-0.3,1-0.8
		L181.1,347.5z"/>
	<path class="st4" d="M112,337.6h16.7l-1.2,4h-6.7l-1,3.4h6.8l-1.2,4.1h-6.8l-1.7,5.5c-0.2,0.6,1.6,0.7,2.3,0.7l3.4-0.5l-1.4,4.6
		h-7.7c-0.6,0-1.1-0.1-1.8-0.2c-0.6-0.1-0.9-0.5-1.2-0.9c-0.3-0.5-0.7-0.8-0.4-1.8l2.2-7.3h-3.8l1.2-4.2h3.8l1-3.4h-3.8L112,337.6z"
		/>
	<path class="st4" d="M123.2,330.4h6.8l-1.2,4.2h-9.4l-1,0.9c-0.4,0.4-0.6,0.3-1.2,0.5c-0.5,0.3-1.6,0.8-3.1,0.8h-3l1.2-4h0.9
		c0.8,0,1.3-0.1,1.5-0.2c0.3-0.2,0.6-0.6,1-1.3l1.7-3.1h6.8L123.2,330.4z"/>
	<path class="st3" d="M136.4,337.3c0,0,1.9-1.7,5.1-2.3c0.7-0.1,5.3-0.1,5.3-0.1l0.7-2.3h-9.7L136.4,337.3z M145.4,339h-9.6
		l-0.6,1.9h8.3c1-0.1,1.2,0,1.3,0L145.4,339z M133,328.2h5.8l-0.8,2.9c0,0,1.8-1.5,3.1-2c1.3-0.5,4.2-0.9,4.2-0.9l9.4,0l-3.2,10.7
		c-0.6,1.8-1.2,3-1.6,3.6c-0.4,0.6-0.8,1-1.6,1.5c-0.8,0.4-1.5,0.7-2.2,0.7c-0.6,0.1-1.6,0.1-2.9,0.1h-9.1l-2.6,8.5
		c-0.2,0.8-0.4,1.2-0.2,1.5c0.1,0.2,0.4,0.4,0.9,0.4l4-0.4l-1.4,4.7h-4.5c-1.4,0-2.5,0-3.2-0.1c-0.7-0.1-1.4,0-1.9-0.4
		c-0.4-0.4-1-0.9-1-1.4c0-0.5,0.2-1.2,0.5-2.3L133,328.2z"/>
	<path class="st4" d="M150,345.5l-0.5,2.6c-0.2,0.8-0.4,1.4-1.1,1.9c-0.6,0.5-1.4,1.1-3.1,1.1l-3.2,0.2l0,2.9c0,0.8,0.2,0.7,0.3,0.9
		c0.2,0.2,0.3,0.2,0.4,0.3l1-0.1l3.1-0.2l-1.3,4.3h-3.6c-2.5,0-4.3-0.1-4.9-0.6c-0.6-0.4-0.7-0.9-0.7-1.7l0.2-11.3h5.7l-0.1,2.3h1.4
		c0.4,0,0.8-0.1,1-0.2c0.2-0.1,0.3-0.3,0.4-0.6l0.6-1.8H150z"/>
	<path class="st4" d="M69.1,288.6c-0.2,0.9-3.8,17.7-3.8,17.7c-0.8,3.4-1.4,5.8-3.3,7.4c-1.1,0.9-2.4,1.3-3.9,1.3
		c-2.4,0-3.8-1.2-4-3.4l-0.1-0.8c0,0,0.7-4.6,0.7-4.6c0,0,3.8-15.3,4.5-17.3c0-0.1,0.1-0.2,0.1-0.2c-7.4,0.1-8.8,0-8.8-0.1
		c0,0.2-0.2,1.1-0.2,1.1l-3.9,17.2l-0.3,1.5l-0.6,4.8c0,1.4,0.3,2.6,0.8,3.6c1.8,3.1,6.8,3.6,9.7,3.6c3.7,0,7.1-0.8,9.5-2.2
		c4.1-2.4,5.1-6.2,6.1-9.5l0.4-1.7c0,0,3.9-15.9,4.6-18c0-0.1,0-0.2,0-0.2C71.2,288.7,69.6,288.7,69.1,288.6"/>
	<path class="st4" d="M90.9,320.1c-2.6,0-3.6,0-6.7,0.1l-0.1-0.2c0.3-1.2,0.6-2.3,0.8-3.5l0.4-1.6c0.6-2.5,1.1-5.4,1.2-6.3
		c0.1-0.5,0.2-1.9-1.3-1.9c-0.6,0-1.3,0.3-2,0.6c-0.4,1.3-1.1,5-1.5,6.8c-0.8,3.6-0.8,4-1.2,5.8l-0.2,0.2c-2.7,0-3.7,0-6.8,0.1
		l-0.1-0.3c0.5-2.1,1-4.3,1.5-6.4c1.3-5.8,1.6-8,2-10.9l0.2-0.2c3-0.4,3.8-0.5,7.1-1.2l0.3,0.3l-0.5,1.8c0.5-0.3,1.1-0.6,1.6-0.9
		c1.6-0.8,3.3-1,4.3-1c1.4,0,3,0.4,3.7,2.1c0.6,1.5,0.2,3.3-0.6,7l-0.4,1.8c-0.8,4-1,4.8-1.4,7.5L90.9,320.1z"/>
	<path class="st4" d="M101.6,320.1c-1.6,0-2.6,0-3.6,0c-1,0-2,0.1-3.4,0.1l-0.1-0.1l-0.1-0.1c0.4-1.5,0.6-2.1,0.8-2.6
		c0.2-0.5,0.4-1.1,0.7-2.6c0.5-2,0.8-3.4,1-4.7c0.2-1.2,0.3-2.2,0.5-3.4l0.1-0.1l0.1-0.1c1.6-0.2,2.6-0.4,3.6-0.5
		c1-0.1,2.1-0.3,3.7-0.7l0.1,0.1l0,0.1c-0.3,1.3-0.6,2.5-0.9,3.8c-0.3,1.3-0.6,2.5-0.9,3.8c-0.6,2.7-0.8,3.6-1,4.4
		c-0.1,0.7-0.2,1.1-0.4,2.4l-0.1,0.1L101.6,320.1z"/>
	<path class="st4" d="M118.4,310.8c-0.2,0.7-0.7,3.2-1.6,4.3c-0.6,0.8-1.2,1.3-2,1.3c-0.2,0-1.5,0-1.5-1.9c0-1,0.2-1.9,0.4-3
		c0.7-3.1,1.5-5.6,3.6-5.6C119,305.7,119.1,307.7,118.4,310.8 M125.3,311c0.9-4,0.2-5.9-0.7-7.1c-1.4-1.8-3.8-2.3-6.3-2.3
		c-1.5,0-5.1,0.1-7.9,2.7c-2,1.9-3,4.4-3.5,6.8c-0.6,2.5-1.2,6.9,2.9,8.6c1.3,0.5,3.1,0.7,4.3,0.7c3,0,6.1-0.8,8.4-3.3
		C124.2,315.2,125,312.2,125.3,311"/>
	<path class="st4" d="M189.7,320.4c-3.2,0-4.1,0-7.1,0.1l-0.2-0.2c0.8-3,1.6-6,2.3-9.1c0.9-4,1.1-5.7,1.4-8l0.2-0.2
		c3.2-0.5,4-0.6,7.3-1.2l0.1,0.3c-0.6,2.5-1.2,5-1.8,7.5c-1.2,5.2-1.6,7.9-2.1,10.6L189.7,320.4z"/>
	<path class="st4" d="M184.9,311.1c-0.2,0.6-0.8,3.2-1.6,4.3c-0.5,0.8-1.8,1.2-2.6,1.2c-0.2,0-1.5,0-1.5-1.9c0-0.9,0.2-1.9,0.4-3
		c0.7-3,1.5-5.6,3.6-5.6C184.9,306.1,185.7,308,184.9,311.1 M191.2,311.4c0.9-4-2.8-0.4-3.4-1.7c-0.9-2.1-0.4-6.3-4-7.7
		c-1.4-0.5-4.7,0.2-7.6,2.7c-2,1.9-3,4.4-3.5,6.8c-0.6,2.4-1.2,6.9,2.9,8.5c1.3,0.5,2.5,0.7,3.6,0.7c4.1-0.2,7.3-6.4,9.6-8.9
		C190.7,309.9,191,312.6,191.2,311.4"/>
	<path class="st4" d="M143.3,320.1c-2.7,0-3.6,0-6.6,0.1l-0.1-0.2c0.3-1.2,0.6-2.3,0.8-3.5l0.4-1.6c0.6-2.5,1.1-5.4,1.2-6.3
		c0.1-0.5,0.2-1.9-1.3-1.9c-0.6,0-1.3,0.3-2,0.6c-0.4,1.3-1.1,5-1.5,6.8c-0.8,3.6-0.8,4-1.1,5.8l-0.2,0.2c-2.7,0-3.7,0-6.8,0.1
		l-0.1-0.3c0.5-2.1,1-4.3,1.5-6.4c1.3-5.8,1.6-8,2-10.9l0.2-0.2c3-0.4,3.8-0.5,7.1-1.2l0.3,0.3l-0.5,1.8c0.5-0.3,1.1-0.6,1.6-0.9
		c1.6-0.8,3.3-1,4.2-1c1.4,0,3,0.4,3.7,2.1c0.6,1.5,0.2,3.3-0.6,7l-0.4,1.8c-0.9,4-1,4.8-1.5,7.5L143.3,320.1z"/>
	<path class="st4" d="M166.1,288.5l-2.2,0c-5.7,0.1-8,0-8.9-0.1c-0.1,0.4-0.3,1.2-0.3,1.2l-2,9.5c0,0-4.9,20.1-5.1,21.1
		c4.9-0.1,7-0.1,7.8,0c0.2-0.9,1.4-6.6,1.4-6.6s1-4.1,1-4.3c0,0,0.3-0.4,0.6-0.6h0.4c4.3,0,9.2,0,13-2.8c2.6-1.9,4.3-4.8,5.1-8.2
		c0.2-0.8,0.4-1.8,0.4-2.9c0-1.3-0.3-2.6-1-3.6C174.4,288.6,170.6,288.6,166.1,288.5 M169,298.4c-0.5,2.1-1.8,3.9-3.6,4.7
		c-1.4,0.7-3.2,0.8-5,0.8h-1.2l0.1-0.5c0,0,2.2-9.4,2.2-9.4l0.1-0.5l0-0.4l0.9,0.1c0,0,4.5,0.4,4.6,0.4
		C168.8,294.3,169.5,296.1,169,298.4"/>
	<path class="st4" d="M215.8,301.8l-0.3-0.3c-3.3,0.7-3.8,0.8-6.8,1.2l-0.2,0.2c0,0,0,0.1,0,0.1l0,0c-2.2,5.1-2.2,4-4,8.1
		c0-0.2,0-0.3,0-0.5l-0.4-8.8l-0.3-0.3c-3.4,0.7-3.5,0.8-6.6,1.2l-0.2,0.2c0,0.1,0,0.2-0.1,0.3l0,0c0.4,2,0.3,1.6,0.7,4.7
		c0.2,1.6,0.4,3.1,0.6,4.7c0.3,2.6,0.5,3.8,0.9,7.7c-2.1,3.5-2.6,4.9-4.7,7.9l0.1,0.3c3.1-0.1,3.8-0.1,6.1-0.1l0.5-0.6
		C202.7,324.3,215.8,301.8,215.8,301.8"/>
	<path class="st4" d="M104.5,303.9c1.8-1.2,2-2.9,0.5-3.7c-1.5-0.9-4.1-0.6-5.9,0.6c-1.8,1.2-2,2.9-0.5,3.8
		C100.1,305.4,102.7,305.1,104.5,303.9"/>
	<path class="st4" d="M200.7,328.2l-2.6,4.4c-0.8,1.5-2.3,2.6-4.7,2.6l-4.1,0l1.2-4h0.8c0.4,0,0.7,0,1-0.1c0.2-0.1,0.4-0.2,0.5-0.5
		l1.5-2.4H200.7z"/>
	<path class="st5" d="M375.9,289.2c5.4,0,9.8-4.2,10.1-9.5c0.1-1.8-0.5-3.5-1.6-4.7c-1.2-1.3-3-1.9-5-1.9c-5.3,0-9.7,4.1-10,9.5
		c-0.1,1.8,0.5,3.5,1.6,4.7C372.2,288.6,374,289.2,375.9,289.2"/>
	<path class="st5" d="M279.9,358.5c-3.8,0-6.5,1.3-9.1,4.4l-0.6-3.9h-5.8l0,0.4c-0.3,1.8-0.5,3.7-1,5.6l-5,20.1h7.8l3.7-14.7
		c0.6-2.4,2.2-6.3,6.2-6.3c1.9,0,2.9,0.9,2.8,2.9c0,0.8-0.2,1.5-0.5,2.4l-3.2,12.2l-1,3.6h8.1l4.3-17c0.2-1,0.4-2,0.4-2.9
		C287.2,360.9,284.5,358.5,279.9,358.5"/>
	<path class="st5" d="M381.2,358.5c-3.8,0-6.5,1.3-9.1,4.4l-0.6-3.9h-5.8l0,0.4c-0.3,1.8-0.6,3.7-1,5.6l-5,20.1h7.9l3.7-14.7
		c0.6-2.4,2.2-6.3,6.2-6.3c2,0,2.9,0.9,2.8,2.9c0,0.8-0.3,1.5-0.5,2.4l-3.2,12.2l-1,3.6h8l4.3-17c0.2-1,0.4-2,0.4-2.9
		C388.5,360.9,385.8,358.5,381.2,358.5"/>
	<path class="st5" d="M507.3,358.3c-3.8,0-6.5,1.3-9.1,4.4l-0.6-3.9h-5.8l0,0.4c-0.3,1.8-0.6,3.7-1,5.6l-5,20.1h7.9l3.7-14.7
		c0.6-2.3,2.2-6.3,6.1-6.3c2,0,2.9,0.9,2.8,2.9c0,0.8-0.2,1.5-0.5,2.4l-3.2,12.2l-1,3.6h8.1l4.3-17c0.2-1,0.4-2,0.4-2.9
		C514.5,360.8,511.8,358.3,507.3,358.3"/>
	<path class="st5" d="M409.6,357.8c-8.8,0-18.7,7.2-19.1,18.8c-0.2,5.2,2.5,8.5,7.1,8.5c3.4,0,6.3-1.7,8.5-5.2
		c-0.1,2.3,0.5,3.9,1.9,4.6l0.1,0h4.3l0.1-0.4c0.1-2.6,0.6-5.6,1.4-8.9l3.8-16.1l-0.3-0.1C415.8,358.3,412.3,357.8,409.6,357.8
		 M408.2,368.9c-1.5,6.1-4.7,10.6-7.6,10.6c-1.8,0-2.7-1.2-2.6-3.7c0.2-6.5,5.1-12.5,10.2-12.5c0.4,0,0.9,0,1.4,0.2L408.2,368.9z"/>
	<path class="st5" d="M536.1,357.7c-8.8,0-18.7,7.2-19.1,18.8c-0.2,5.2,2.5,8.5,7.1,8.5c3.4,0,6.3-1.7,8.5-5.2
		c-0.1,2.3,0.5,3.8,1.9,4.6l0.1,0h4.3l0-0.4c0.2-2.6,0.6-5.6,1.4-8.9l3.8-16.1l-0.3-0.1C542.3,358.2,538.9,357.7,536.1,357.7
		 M534.7,368.9c-1.5,6.1-4.7,10.6-7.6,10.6c-1.9,0-2.7-1.2-2.6-3.7c0.2-6.6,5.1-12.5,10.2-12.5c0.4,0,0.9,0,1.4,0.2L534.7,368.9z"/>
	<path class="st5" d="M302.7,363.8l6.8,0l1.1-4.5l-6.8,0l2.2-10.5l-4.5,0l-5.3,10.5l-4.1,0l-1.1,4.5h4.1h-3h3l-3.4,14.1
		c-1.4,5.8,2.4,7.5,7.2,7.4c3.4,0,5.2-0.3,6.8-0.6l0.6-4c-1,0-2.6,0.1-4.2-0.2c-2.2-0.5-3.1-1.5-2.4-4.3L302.7,363.8z"/>
	<path class="st5" d="M326.7,358.7c-6.9,0-14.1,5.2-16.1,13.5c-1.9,8.2,2.2,13.2,10,13.2c7,0,9.3-1.3,11.2-2l-0.5-4.2
		c-1.1,0.4-3.2,1.2-6.8,1.2c-5.6,0-7.2-3.1-6.3-7.2l17.2-0.1C337.9,362.9,333.1,358.6,326.7,358.7 M328.5,368.8l-9.1,0
		c1.1-2.8,2.9-5.1,5.7-5.1C328,363.7,328.8,365.5,328.5,368.8"/>
	<path class="st5" d="M358.2,358.6c-3.3,0-6.8,3.3-7.9,4.4l0.7-3.8l-7.1,0l-6.1,25.5l7.5,0l4.2-17.6c1.2-0.8,3.7-2.6,5.8-2.6
		c1.5,0,2.6,0.4,3.1,0.7l4-5.4C361.8,359.4,360.5,358.6,358.2,358.6"/>
	<path class="st5" d="M435.6,348.5l-4.5,0l-5.3,10.5l-4.1,0l-1,4.5l4.1,0l-3.4,14.2c-1.5,5.8,2.4,7.5,7.1,7.4c3.4,0,5.2-0.3,6.8-0.6
		l0.6-4c-1,0-2.6,0-4.2-0.2c-2.2-0.5-3.1-1.5-2.4-4.3l3-12.5l6.8,0l1.1-4.5l-6.8,0L435.6,348.5z"/>
	<path class="st5" d="M473.4,358.3c-7.7,0-15.7,5.2-17.6,13.4c-1.9,8.2,3.6,13.3,11.2,13.3c7.7,0,15.7-5.2,17.6-13.4
		C486.6,363.4,481.1,358.2,473.4,358.3 M476.6,371.6c-1,4.4-4.6,8.3-8.3,8.3c-4.5,0-5.5-3.9-4.5-8.3c1.1-4.4,3.9-8.3,8.4-8.3
		C476,363.3,477.7,367.2,476.6,371.6"/>
	<path class="st5" d="M324.2,337.7l5.8-25c0.9-4,3.5-10.7,10.2-10.7c3.3,0,4.9,1.6,4.8,4.8c0,1.3-0.4,2.6-0.7,4l-4.9,20.7l-1.6,6.1
		h13.6l6.6-28.8c0.4-1.7,0.6-3.4,0.6-5c0.1-7-4.4-11.2-12.2-11.2c-6.4,0-10.9,2.2-15.2,7.5l-1.2-6.6h-9.7l-0.1,0.6
		c-0.4,3-0.8,6.3-1.6,9.5l-7.8,34.1H324.2z"/>
	<path class="st5" d="M446.7,312.7c0.9-4,3.5-10.7,10.2-10.7c3.3,0,4.9,1.6,4.8,4.8c0,1.3-0.3,2.6-0.7,4l-4.9,20.8l-1.4,6.1h13.4
		l6.6-28.8c0.4-1.7,0.6-3.4,0.6-5c0.1-7-4.4-11.2-12.1-11.2c-6.4,0-10.9,2.2-15.2,7.5l-1.2-6.6h-9.7l-0.1,0.6
		c-0.4,3-0.8,6.3-1.6,9.5l-7.8,34.1h13.3L446.7,312.7z"/>
	<path class="st5" d="M409.5,292.7c-16.7,0-28.5,12.2-28.9,29.7c-0.2,11.2,9.2,16.2,18.5,16.2c16.3,0,28.5-12.6,28.8-29.8
		C428.2,297.7,418.9,292.7,409.5,292.7 M401.1,329.3c-4.6,0-6.8-2.7-6.6-8.2c0.1-6.9,4.5-19.1,12.9-19.1c5.9,0,7.1,4.4,7,8.2
		C414.2,316.7,409.4,329.3,401.1,329.3"/>
	<path class="st5" d="M536.2,338.7c6.3,0,11.5-2.9,15.6-8.8c-0.2,3.8,1.1,6.5,3.7,7.8l0.1,0.1h8l0-0.7c0.2-4.5,1-9.5,2.3-15
		l6.5-27.2l-0.6-0.2c-3-1.1-9.4-2-14.5-2c-16.4,0-34.3,12.1-34.7,31.7C522.7,333.2,527.8,338.7,536.2,338.7 M555.1,301.9
		c0.7,0,1.7,0,2.6,0.3l-2.3,9.3c-2.6,10.3-8.4,17.9-13.7,17.9c-3.4,0-5.1-2.1-5-6.3C536.9,312,545.7,301.9,555.1,301.9"/>
	<path class="st5" d="M493.2,316.3h10.3c12.3,0,25.2-9,25.5-24.6c0.2-8.5-7-15.1-16.4-15.1h-24l-12.9,54.9l-1.3,6.1h14L493.2,316.3z
		 M500.2,286.4h6.1c4.3,0,8.8,2.3,8.7,6.5c-0.1,7.8-5.7,13.6-16.2,13.6h-3.4L500.2,286.4z"/>
	<path class="st5" d="M280.9,338.5c15.9,0,25.4-7.5,29-22.9l9-39.3l-14.1,0l-0.9,4.4c-0.1,0.6-8,34.5-8.1,34.9
		c-1.9,8.3-6.3,12.5-13,12.5c-6.1,0-9.9-2.9-9.8-7.5c0-1.4,0.2-2.8,0.7-4.7l9.1-39.5l-14,0l-0.8,4.1l-8.3,35.5
		c-0.4,2.1-0.7,4.1-0.7,6.2C258.8,334.2,270.2,338.5,280.9,338.5"/>
	<polygon class="st5" points="370.6,337.8 380.8,293.5 367.5,293.5 358.5,331.7 357,337.8 	"/>
	<polygon class="st5" points="440.3,384.4 447.8,384.4 453.9,358.9 446.4,358.9 	"/>
	<path class="st5" d="M452.7,347.2c-3.1,0-5.6,2.4-5.7,5.4c-0.1,1,0.3,2,0.9,2.7c0.7,0.7,1.7,1.1,2.8,1.1c3.1,0,5.6-2.4,5.8-5.4
		c0.1-1-0.3-2-0.9-2.7C454.9,347.6,453.9,347.2,452.7,347.2"/>
	<polygon class="st5" points="252.8,346.3 243,384.9 251.6,384.9 260.8,346.3 	"/>
	<path class="st5" d="M607.6,293.7L592,325l-1.2-31.3l-13.9,0l4.1,45.7c-2.5,10.2-10.9,9.1-16.1,9.1l-2.3,0h-7.2
		c-0.6,0-1.6,0.3-2.1,1.4l-1.6,6.9l-6.5,27.3l7.5,0l5.6-23.8c0.2-0.6,0.8-1.1,1.5-1.1c0,0,0,0,0,0l9.8,0c13.8,0,19.1-7.4,23.7-15.5
		l28.4-50L607.6,293.7z"/>
</g>
</svg>
